<!DOCTYPE svg PUBLIC "-//W3C//DTD SVG 20010904//EN" "http://www.w3.org/TR/2001/REC-SVG-20010904/DTD/svg10.dtd">
<svg version="1.0" xmlns="http://www.w3.org/2000/svg" width="158px" height="220px" viewBox="0 0 1580 2200" preserveAspectRatio="xMidYMid meet">
<g id="layer101" fill="#030303" stroke="none">
 <path d="M100 2156 c0 -3 187 -96 194 -96 15 0 180 -101 216 -132 24 -22 57 -42 73 -45 26 -5 27 -8 21 -37 -4 -17 -8 -45 -9 -62 -1 -17 -11 -44 -22 -60 -27 -39 -83 -142 -83 -154 0 -6 7 -10 15 -10 8 0 15 9 15 20 0 21 24 66 44 85 6 6 24 27 39 48 22 29 26 41 18 51 -8 10 -8 22 -1 40 19 52 13 74 -30 101 -21 13 -44 34 -51 46 -12 22 -14 142 -3 185 3 13 2 24 -4 24 -10 0 -16 -27 -28 -116 -6 -46 -9 -51 -27 -46 -12 3 -40 18 -62 33 -23 15 -73 42 -111 59 -38 18 -88 40 -111 51 -38 17 -93 26 -93 15z"/>
 <path d="M1220 2147 c45 -41 193 -149 224 -163 52 -25 49 -34 -16 -48 -36 -8 -146 -121 -169 -174 -22 -51 -27 -181 -9 -286 16 -100 32 -125 80 -127 73 -2 126 -80 134 -196 3 -44 1 -73 -4 -73 -6 0 -10 10 -10 23 0 12 -6 29 -13 37 -15 19 -67 43 -75 35 -11 -11 15 -40 32 -37 11 2 22 -9 31 -32 9 -20 19 -36 23 -36 4 0 7 -21 7 -48 0 -26 4 -52 8 -59 5 -6 10 -41 12 -76 1 -35 8 -74 15 -86 7 -14 10 -50 7 -92 -3 -53 0 -69 10 -69 7 0 13 6 13 14 0 8 5 16 11 18 12 4 5 73 -25 234 -8 44 -15 119 -15 165 -1 206 -47 299 -148 299 -24 0 -43 1 -43 3 0 1 -6 36 -14 77 -8 41 -18 112 -21 157 -7 73 -5 87 16 129 33 68 144 184 178 184 30 1 61 21 61 41 0 8 -12 19 -27 25 -16 6 -76 47 -135 92 -60 46 -118 82 -130 82 -19 0 -20 -2 -8 -13z"/>
 <path d="M739 2001 c-16 -16 -29 -40 -29 -53 0 -20 3 -18 22 14 12 21 30 40 40 44 10 3 18 10 18 15 0 17 -22 9 -51 -20z"/>
 <path d="M710 1864 c-48 -30 -41 -45 9 -20 68 35 189 12 282 -55 40 -28 37 -6 -3 24 -57 42 -131 71 -188 75 -46 2 -62 -1 -100 -24z"/>
 <path d="M1135 1680 c49 -50 55 -55 55 -45 0 11 -83 95 -93 95 -6 0 11 -22 38 -50z"/>
 <path d="M472 1497 c-18 -77 -21 -116 -12 -122 9 -5 18 27 25 87 3 18 9 34 15 36 14 5 12 28 -3 41 -11 9 -16 0 -25 -42z"/>
 <path d="M394 1378 c-29 -34 -44 -73 -44 -121 0 -47 -19 -106 -50 -161 -21 -39 -39 -138 -40 -218 0 -36 -6 -53 -25 -74 -21 -23 -25 -37 -25 -90 0 -38 -4 -64 -11 -66 -7 -2 -13 -28 -14 -59 -3 -59 -23 -140 -39 -151 -5 -3 -10 -30 -11 -60 -2 -39 -1 -42 2 -10 3 33 8 42 19 38 8 -3 14 0 14 7 0 7 10 32 22 57 11 25 20 55 19 66 -1 14 5 23 19 27 21 5 21 7 6 29 -20 28 -21 54 -1 62 10 4 13 14 9 35 -8 37 13 101 32 101 17 0 19 21 3 37 -7 7 -8 17 -1 30 6 10 8 31 5 46 -6 29 11 38 21 11 4 -9 9 -14 13 -11 3 4 -2 18 -11 31 -18 28 -21 72 -6 81 6 3 10 19 10 34 0 16 7 34 15 41 13 11 14 10 10 -3 -4 -8 -2 -18 4 -22 17 -10 13 -25 -4 -19 -17 7 -21 -21 -5 -31 6 -3 10 -13 10 -21 0 -9 -5 -12 -12 -8 -8 5 -9 0 -3 -17 4 -13 9 -41 12 -61 3 -21 11 -38 17 -38 10 0 11 12 6 47 -4 26 -4 60 1 77 16 61 38 261 28 264 -16 6 -10 40 16 78 39 57 30 88 -11 42z"/>
 <path d="M457 1354 c-4 -4 -7 -14 -7 -23 0 -11 3 -12 11 -4 6 6 10 16 7 23 -2 6 -7 8 -11 4z"/>
 <path d="M1350 1266 c0 -8 12 -23 28 -34 47 -32 52 -34 52 -17 0 8 -11 20 -24 24 -13 5 -26 17 -29 25 -8 20 -27 21 -27 2z"/>
 <path d="M1280 1250 c0 -5 9 -33 21 -62 19 -48 20 -61 11 -138 -6 -47 -9 -87 -7 -88 9 -9 27 81 32 155 4 67 3 85 -11 98 -9 9 -16 23 -16 31 0 8 -7 14 -15 14 -8 0 -15 -4 -15 -10z"/>
 <path d="M524 922 c-12 -2 -30 -12 -40 -23 -9 -10 -25 -19 -36 -19 -24 0 -23 -21 2 -43 11 -9 20 -23 20 -31 0 -7 9 -16 20 -19 11 -3 20 -1 20 4 0 5 -3 9 -7 9 -5 0 -16 14 -25 30 -17 29 -17 31 0 37 9 4 20 10 23 15 3 4 31 9 62 9 31 1 54 6 51 10 -3 5 -10 7 -15 4 -5 -4 -9 -2 -9 3 0 11 -36 19 -66 14z"/>
 <path d="M1271 886 c-13 -15 -18 -82 -8 -93 4 -3 7 3 7 14 0 11 7 26 15 33 16 14 20 46 6 54 -5 3 -14 0 -20 -8z"/>
 <path d="M324 832 c1 -41 3 -48 15 -39 10 9 16 7 27 -8 8 -10 14 -14 14 -8 0 7 -4 15 -10 18 -5 3 -10 14 -10 24 0 11 -8 29 -18 41 -18 23 -19 23 -18 -28z"/>
 <path d="M660 871 c0 -11 32 -31 49 -31 17 0 13 17 -6 24 -10 3 -24 9 -30 12 -7 3 -13 1 -13 -5z"/>
 <path d="M1170 850 c0 -5 7 -10 15 -10 8 0 15 5 15 10 0 6 -7 10 -15 10 -8 0 -15 -4 -15 -10z"/>
 <path d="M1074 825 c11 -8 27 -15 35 -15 9 0 27 -3 41 -7 24 -6 24 -5 8 13 -12 13 -32 21 -60 22 -40 2 -42 1 -24 -13z"/>
 <path d="M855 790 c-4 -6 7 -10 27 -9 27 0 30 2 13 9 -27 12 -33 12 -40 0z"/>
 <path d="M1020 782 c1 -20 49 -57 75 -59 l30 -1 -34 28 c-32 27 -71 45 -71 32z"/>
 <path d="M951 771 c-7 -5 -9 -11 -4 -14 6 -4 19 0 29 8 15 11 16 14 4 15 -8 0 -21 -4 -29 -9z"/>
 <path d="M275 739 c-10 -15 4 -79 16 -79 6 0 8 12 4 29 -3 17 -2 32 4 36 6 3 11 10 11 16 0 12 -27 12 -35 -2z"/>
 <path d="M1241 716 c-7 -8 -11 -23 -8 -33 3 -14 6 -12 16 11 13 33 9 43 -8 22z"/>
 <path d="M1046 666 c3 -9 11 -16 16 -16 13 0 5 23 -10 28 -7 2 -10 -2 -6 -12z"/>
 <path d="M785 650 c-3 -5 3 -10 14 -10 12 0 21 5 21 10 0 6 -6 10 -14 10 -8 0 -18 -4 -21 -10z"/>
 <path d="M870 650 c-12 -7 -12 -12 -3 -21 15 -15 26 -7 21 15 -2 11 -7 13 -18 6z"/>
 <path d="M1410 635 c-7 -9 -11 -18 -8 -20 3 -3 11 1 18 10 7 9 11 18 8 20 -3 3 -11 -1 -18 -10z"/>
 <path d="M274 627 c3 -10 6 -25 6 -33 0 -8 5 -14 10 -14 15 0 12 22 -7 45 -14 18 -15 18 -9 2z"/>
 <path d="M1461 595 c-14 -51 -14 -82 0 -91 8 -5 10 2 7 21 -3 16 -1 41 4 56 5 16 8 34 5 41 -2 7 -9 -5 -16 -27z"/>
 <path d="M1508 615 c-3 -4 -4 -29 -2 -55 3 -33 0 -51 -9 -57 -7 -4 -18 -20 -24 -34 -6 -14 -28 -34 -49 -44 -32 -15 -35 -19 -20 -27 21 -12 69 -2 61 13 -4 5 4 21 18 35 21 21 26 22 31 8 15 -39 -2 -70 -49 -87 -13 -5 -15 -11 -8 -18 7 -7 22 -6 47 5 32 14 36 19 36 53 0 21 -7 48 -15 60 -13 18 -13 22 0 33 8 7 15 24 15 39 -1 32 -23 85 -32 76z"/>
 <path d="M835 589 c-4 -6 -5 -12 -2 -15 7 -7 37 7 37 17 0 13 -27 11 -35 -2z"/>
 <path d="M754 571 c3 -5 15 -7 26 -4 28 7 25 13 -6 13 -14 0 -23 -4 -20 -9z"/>
 <path d="M543 540 c-13 -5 -23 -14 -23 -20 0 -15 15 -12 41 10 26 21 18 24 -18 10z"/>
 <path d="M246 512 c8 -33 13 -42 23 -42 13 0 0 58 -15 64 -11 4 -13 -1 -8 -22z"/>
 <path d="M410 529 c0 -10 62 -22 87 -17 10 2 -6 9 -34 14 -29 6 -53 7 -53 3z"/>
 <path d="M964 516 c-4 -17 -13 -26 -25 -26 -10 0 -19 -4 -19 -10 0 -5 11 -10 24 -10 19 0 26 7 31 31 8 37 -1 52 -11 15z"/>
 <path d="M785 521 c-6 -11 9 -23 19 -14 9 9 7 23 -3 23 -6 0 -12 -4 -16 -9z"/>
 <path d="M710 500 l-25 -8 27 -1 c15 -1 30 4 33 9 7 11 0 11 -35 0z"/>
 <path d="M1010 481 c-5 -11 -10 -25 -10 -32 0 -18 27 7 33 31 7 26 -9 26 -23 1z"/>
 <path d="M210 437 c0 -8 10 -17 23 -21 13 -3 29 -16 36 -30 9 -15 26 -27 47 -31 22 -4 39 -15 51 -35 22 -37 37 -42 88 -29 73 20 148 24 210 12 30 -6 40 -14 45 -33 5 -20 13 -25 50 -29 62 -7 131 -5 163 3 54 13 25 23 -64 22 -81 -1 -92 1 -107 20 -27 35 -80 46 -194 40 -57 -2 -115 -7 -130 -11 -35 -9 -66 32 -48 64 10 20 8 21 -30 21 -24 0 -52 8 -68 19 -39 28 -72 36 -72 18z"/>
 <path d="M407 426 c-8 -21 1 -26 52 -27 25 0 69 -4 96 -9 28 -4 51 -7 53 -5 7 7 -109 37 -122 32 -9 -4 -18 -2 -21 4 -4 5 -11 7 -16 3 -5 -3 -16 -1 -23 5 -10 9 -15 8 -19 -3z"/>
 <path d="M889 427 c12 -15 53 -16 58 -1 2 5 -13 10 -33 12 -30 2 -34 0 -25 -11z"/>
 <path d="M1327 413 c-32 -22 -40 -24 -49 -12 -7 11 -11 11 -15 2 -2 -7 -11 -13 -19 -13 -8 0 -14 -6 -14 -13 0 -8 -12 -20 -27 -27 -39 -19 -73 -51 -73 -67 0 -7 -21 -34 -47 -58 -52 -50 -124 -78 -174 -68 -42 8 -36 20 14 27 61 9 166 80 174 116 3 19 15 32 34 40 16 7 29 19 29 26 0 10 -10 9 -40 -7 -32 -17 -39 -26 -35 -40 6 -18 -4 -24 -29 -20 -5 1 -17 -6 -27 -15 -11 -10 -29 -18 -42 -20 -12 -1 -24 -3 -27 -3 -3 -1 2 -6 10 -11 13 -9 13 -11 0 -20 -41 -27 -155 -52 -211 -47 -46 4 -57 2 -52 -9 3 -8 -5 -16 -22 -20 -35 -9 -40 -1 -27 45 16 51 15 71 -3 71 -11 0 -15 -12 -15 -49 0 -28 -4 -53 -10 -56 -5 -3 -10 -14 -10 -23 0 -10 -9 -23 -20 -30 -11 -7 -20 -21 -20 -31 0 -11 -5 -23 -10 -26 -14 -9 -12 -25 3 -25 8 0 24 22 37 49 23 50 51 68 85 55 9 -4 27 -1 40 6 17 9 45 11 102 5 131 -12 169 -9 219 20 47 28 104 96 104 125 0 23 35 45 84 54 28 5 36 10 26 16 -28 18 1 22 61 11 33 -7 67 -15 75 -18 8 -3 14 -1 14 4 0 5 -21 15 -47 22 -44 12 -46 14 -25 24 12 5 22 16 22 24 0 16 3 17 -43 -14z"/>
 <path d="M990 410 c0 -5 12 -10 26 -10 14 0 23 4 19 10 -3 6 -15 10 -26 10 -10 0 -19 -4 -19 -10z"/>
 <path d="M642 398 c7 -19 38 -22 38 -4 0 10 -9 16 -21 16 -12 0 -19 -5 -17 -12z"/>
 <path d="M220 369 c0 -22 22 -49 51 -64 37 -20 28 -39 -13 -29 -26 5 -30 4 -25 -10 4 -11 1 -17 -11 -18 -9 -1 8 -4 38 -7 30 -3 71 -3 90 1 31 7 38 4 61 -22 14 -17 32 -30 40 -30 8 0 28 -9 46 -19 42 -26 113 -37 113 -18 0 20 -12 28 -25 17 -18 -15 -99 22 -84 37 8 8 1 14 -27 22 -22 6 -44 11 -50 11 -6 0 -17 7 -24 15 -7 8 -30 18 -51 21 -29 5 -39 11 -39 25 0 12 -7 19 -20 19 -13 0 -28 12 -38 30 -17 30 -32 39 -32 19z"/>
 <path d="M695 370 c21 -34 176 -73 253 -63 29 3 52 9 52 13 0 5 -37 10 -82 13 -121 8 -171 17 -189 33 -18 16 -43 19 -34 4z"/>
 <path d="M140 307 c0 -2 15 -16 33 -33 l32 -29 -29 33 c-28 30 -36 37 -36 29z"/>
 <path d="M584 270 c3 -14 6 -37 6 -52 0 -16 5 -28 11 -28 13 0 4 65 -13 90 -7 11 -8 9 -4 -10z"/>
 <path d="M535 221 c-6 -11 9 -23 19 -14 9 9 7 23 -3 23 -6 0 -12 -4 -16 -9z"/>
 </g>

</svg>